# xmcd
#
# Track frame offsets:
# 150
# 17938
# 32352
# 45200
# 60235
# 69385
# 88307
# 98159
# 114354
# 124854
# 136515
# 148122
# 159891
# 170958
# 182781
# 193956
# 210232
# 221488
# 231664
# 241489
# 257361
# 266484
# 279872
# 292612
#
# Disc length: 4064 seconds
#
#
# Revision: 0
# Processed by: cddbd v1.5.1PL2 Copyright (c) Steve Scherf et al.
# Submitted via: FreeRIP 2.944 
#
DISCID=4d0fde18
DTITLE=Gino and Geno (especial) - Xote e Batidão vol. 2
DYEAR=1900
DGENRE=Sertanejo
TTITLE0=Lorota
TTITLE1=Linda cigana
TTITLE2=Vim dizer adeus
TTITLE3=As águas de São Francisco
TTITLE4=Morena bonita
TTITLE5=Coração cigano (part. esp. Rick e Renner)
TTITLE6=Procurando treta
TTITLE7=Quando ela quer
TTITLE8=Vontade de te ver
TTITLE9=Chore por mim violão
TTITLE10=Convite de baile
TTITLE11=Blusa amarela
TTITLE12=Quatro beijos
TTITLE13=Xonado sem quantia
TTITLE14=Solidão
TTITLE15=Balão de seda
TTITLE16=Bate cocha
TTITLE17=Fim de baile
TTITLE18=Vou virar pinguim
TTITLE19=Perguntando a Deus
TTITLE20=Vou gastar o barão
TTITLE21=Quatro tipos de mulher
TTITLE22=Roubando a morena
TTITLE23=História da goteira
EXTD=
EXTT0=
EXTT1=
EXTT2=
EXTT3=
EXTT4=
EXTT5=
EXTT6=
EXTT7=
EXTT8=
EXTT9=
EXTT10=
EXTT11=
EXTT12=
EXTT13=
EXTT14=
EXTT15=
EXTT16=
EXTT17=
EXTT18=
EXTT19=
EXTT20=
EXTT21=
EXTT22=
EXTT23=
PLAYORDER=
